<svg width="20" height="20" viewBox="0 0 20 20" fill="none" xmlns="http://www.w3.org/2000/svg">
<path d="M17.5 4.98356C14.725 4.70856 11.9333 4.56689 9.15 4.56689C7.5 4.56689 5.85 4.65023 4.2 4.81689L2.5 4.98356" stroke="#292D32" stroke-width="1.5" stroke-linecap="round" stroke-linejoin="round"/>
<path d="M7.08331 4.1415L7.26665 3.04984C7.39998 2.25817 7.49998 1.6665 8.90831 1.6665H11.0916C12.5 1.6665 12.6083 2.2915 12.7333 3.05817L12.9166 4.1415" stroke="#292D32" stroke-width="1.5" stroke-linecap="round" stroke-linejoin="round"/>
<path d="M15.7084 7.6167L15.1667 16.0084C15.075 17.3167 15 18.3334 12.675 18.3334H7.32502C5.00002 18.3334 4.92502 17.3167 4.83335 16.0084L4.29169 7.6167" stroke="#292D32" stroke-width="1.5" stroke-linecap="round" stroke-linejoin="round"/>
<path d="M8.60834 13.75H11.3833" stroke="#292D32" stroke-width="1.5" stroke-linecap="round" stroke-linejoin="round"/>
<path d="M7.91669 10.4165H12.0834" stroke="#292D32" stroke-width="1.5" stroke-linecap="round" stroke-linejoin="round"/>
</svg>
