<svg width="22" height="20" viewBox="0 0 22 20" fill="none" xmlns="http://www.w3.org/2000/svg">
<path d="M9.12499 19.125C8.92608 19.125 8.73531 19.046 8.59466 18.9053C8.45401 18.7647 8.37499 18.5739 8.37499 18.375V11.1637L1.42249 3.5175C1.14881 3.21591 0.968545 2.84136 0.903584 2.43931C0.838623 2.03727 0.891755 1.62501 1.05653 1.25257C1.22131 0.880135 1.49065 0.563532 1.83186 0.341188C2.17307 0.118845 2.57148 0.000320709 2.97874 0H19.0212C19.4285 0.000320709 19.8269 0.118845 20.1681 0.341188C20.5093 0.563532 20.7787 0.880135 20.9435 1.25257C21.1082 1.62501 21.1614 2.03727 21.0964 2.43931C21.0314 2.84136 20.8512 3.21591 20.5775 3.5175L13.625 11.1637V15.375C13.6249 15.4873 13.5996 15.5982 13.5509 15.6995C13.5023 15.8008 13.4314 15.8898 13.3437 15.96L9.59374 18.96C9.46078 19.0667 9.29545 19.1249 9.12499 19.125ZM2.97874 1.5C2.86204 1.50029 2.74791 1.5344 2.65019 1.5982C2.55247 1.66201 2.47533 1.75276 2.42811 1.85949C2.3809 1.96622 2.36563 2.08435 2.38415 2.19958C2.40268 2.31481 2.4542 2.4222 2.53249 2.50875L9.67999 10.3837C9.80245 10.5184 9.87176 10.693 9.87499 10.875V16.815L12.125 15V10.875C12.1245 10.6878 12.1941 10.5073 12.32 10.3688L19.4675 2.49375C19.5411 2.40681 19.5886 2.30081 19.6046 2.188C19.6205 2.07519 19.6042 1.96018 19.5575 1.85625C19.5109 1.75232 19.4357 1.66372 19.3408 1.60068C19.2459 1.53764 19.1351 1.50273 19.0212 1.5H2.97874Z" fill="#8C8C92"/>
</svg>
