<svg width="130" height="40" viewBox="0 0 130 40" fill="none" xmlns="http://www.w3.org/2000/svg">
<path d="M5.41466 14.4225C5.41463 13.9184 5.55364 13.4233 5.81772 12.9867C6.08181 12.5502 6.46165 12.1877 6.91908 11.9357L16.4509 6.68394C16.9083 6.4319 17.4272 6.29921 17.9554 6.29922C18.4836 6.29922 19.0024 6.43191 19.4598 6.68396L25.9893 10.2815C26.3207 9.38058 26.9042 8.58333 27.6765 7.97615L19.8121 3.64335C19.2476 3.33236 18.6073 3.16863 17.9556 3.16863C17.3038 3.16862 16.6634 3.33233 16.099 3.64331L4.33596 10.1244C3.7715 10.4355 3.30279 10.8828 2.9769 11.4215C2.65101 11.9601 2.47943 12.5712 2.47942 13.1932L2.47944 22.1916C3.40774 21.8271 4.42315 21.7129 5.41479 21.8616L5.41466 14.4225Z" fill="white"/>
<path d="M30.4968 17.2382L30.4968 24.926C30.4969 25.4301 30.3577 25.9252 30.0937 26.3616C29.8295 26.7982 29.4497 27.1606 28.9923 27.4126L19.4603 32.6646C19.0029 32.9166 18.4841 33.0492 17.9559 33.0493C17.4278 33.0492 16.9088 32.9165 16.4515 32.6646L9.70065 28.9449C9.33981 29.8389 8.72851 30.621 7.93348 31.2059L16.0994 35.7051C16.6638 36.0161 17.3041 36.1799 17.9559 36.1798C18.6078 36.1798 19.248 36.0162 19.8125 35.7051L31.5755 29.224C32.1401 28.913 32.6087 28.4657 32.9346 27.9269C33.2606 27.3883 33.4322 26.7772 33.4321 26.1552L33.4314 16.8198C32.5121 17.2144 31.4966 17.3592 30.4968 17.2382Z" fill="white"/>
<path d="M3.27752 23.7557C2.70085 24.0735 2.23581 24.5475 1.94129 25.1175C1.64673 25.6875 1.53589 26.3282 1.62276 26.9583C1.70966 27.5883 1.99034 28.1797 2.42932 28.6576C2.86836 29.1353 3.44593 29.4782 4.08911 29.6427C4.73227 29.8072 5.41213 29.7858 6.04264 29.5815C6.6732 29.3772 7.22613 28.9989 7.63148 28.4948C8.03687 27.9905 8.27651 27.3828 8.3201 26.7486C8.36367 26.1144 8.20928 25.482 7.87635 24.9317C7.42923 24.1944 6.69394 23.6565 5.83179 23.436C4.96964 23.2156 4.05103 23.3306 3.27752 23.7557Z" fill="#EC811D"/>
<path d="M29.231 9.52332C28.6544 9.84115 28.1892 10.315 27.8948 10.8851C27.6002 11.4551 27.4894 12.0957 27.5762 12.7258C27.6631 13.356 27.9438 13.9473 28.3827 14.4251C28.8218 14.903 29.3994 15.2458 30.0425 15.4103C30.6858 15.5747 31.3656 15.5534 31.9962 15.3491C32.6267 15.1448 33.1796 14.7666 33.585 14.2623C33.9904 13.7581 34.23 13.1504 34.2736 12.5162C34.3173 11.882 34.1627 11.2497 33.8299 10.6993C33.3828 9.96198 32.6474 9.42406 31.7852 9.20359C30.9232 8.98315 30.0044 9.09811 29.231 9.52332Z" fill="white"/>
<path d="M17.4201 31.3289C17.2454 31.2843 17.0777 31.218 16.9211 31.1317L10.6122 27.6557C10.7098 26.4428 10.421 25.2301 9.78362 24.1767C9.14622 23.1232 8.19009 22.2781 7.04053 21.7524L7.04036 14.8012C7.04091 14.4546 7.13675 14.1143 7.31835 13.8141C7.49995 13.514 7.76091 13.2646 8.07517 13.0908L16.9207 8.21735C17.2353 8.04399 17.5922 7.95273 17.9556 7.95273C18.3189 7.95275 18.6759 8.04403 18.9905 8.21742L25.1225 11.5959C25.0623 12.8107 25.388 14.0145 26.0568 15.0497C26.7257 16.0848 27.7067 16.9031 28.871 17.3972L28.8707 24.5482C28.8701 24.8949 28.7743 25.2353 28.5926 25.5353C28.411 25.8355 28.1501 26.0849 27.8357 26.2587L18.9902 31.132C18.7553 31.2622 18.4952 31.3467 18.2258 31.3804C17.9563 31.4143 17.6824 31.3968 17.4201 31.3289Z" fill="#EC811D"/>
<path d="M48.6 28.6743L52.896 11.1543H57.456L61.8 28.6743H58.128L57.288 24.7143H53.112L52.272 28.6743H48.6ZM53.712 21.8343H56.664L55.824 17.6103C55.712 17.0023 55.592 16.4023 55.464 15.8103C55.352 15.2023 55.264 14.7303 55.2 14.3943C55.136 14.7303 55.048 15.1943 54.936 15.7863C54.84 16.3783 54.728 16.9783 54.6 17.5863L53.712 21.8343ZM66.3026 28.6743V11.1543H71.9906C73.2066 11.1543 74.2626 11.3863 75.1586 11.8503C76.0706 12.3143 76.7746 12.9703 77.2706 13.8183C77.7826 14.6503 78.0386 15.6343 78.0386 16.7703V23.0343C78.0386 24.1543 77.7826 25.1383 77.2706 25.9863C76.7746 26.8343 76.0706 27.4983 75.1586 27.9783C74.2626 28.4423 73.2066 28.6743 71.9906 28.6743H66.3026ZM69.9026 25.3143H71.9906C72.7266 25.3143 73.3186 25.1063 73.7666 24.6903C74.2146 24.2743 74.4386 23.7223 74.4386 23.0343V16.7703C74.4386 16.0983 74.2146 15.5543 73.7666 15.1383C73.3186 14.7223 72.7266 14.5143 71.9906 14.5143H69.9026V25.3143ZM83.0212 28.6743V11.1543H87.2212L91.7572 24.7143C91.7092 24.1223 91.6532 23.4423 91.5892 22.6743C91.5252 21.8903 91.4692 21.1143 91.4212 20.3463C91.3892 19.5623 91.3732 18.8983 91.3732 18.3543V11.1543H94.5412V28.6743H90.3412L85.8532 15.1143C85.9012 15.6263 85.9492 16.2343 85.9972 16.9383C86.0452 17.6423 86.0852 18.3543 86.1172 19.0743C86.1652 19.7943 86.1892 20.4343 86.1892 20.9943V28.6743H83.0212ZM103.772 28.6743V22.4343L98.7319 11.1543H102.5L104.708 16.4343C104.932 16.9623 105.124 17.5223 105.284 18.1143C105.46 18.7063 105.58 19.1863 105.644 19.5543C105.724 19.1863 105.836 18.7063 105.98 18.1143C106.14 17.5223 106.324 16.9623 106.532 16.4343L108.668 11.1543H112.412L107.372 22.4343V28.6743H103.772ZM115.642 28.6743L120.346 19.6263L115.954 11.1543H119.914L121.738 14.9943C121.914 15.3463 122.058 15.6663 122.17 15.9543C122.298 16.2423 122.378 16.4503 122.41 16.5783C122.442 16.4503 122.514 16.2423 122.626 15.9543C122.738 15.6663 122.874 15.3463 123.034 14.9943L124.906 11.1543H128.77L124.378 19.6263L129.082 28.6743H125.122L123.01 24.3543C122.85 24.0023 122.706 23.6743 122.578 23.3703C122.45 23.0663 122.354 22.8343 122.29 22.6743C122.242 22.8343 122.162 23.0663 122.05 23.3703C121.938 23.6743 121.794 24.0023 121.618 24.3543L119.506 28.6743H115.642Z" fill="white"/>
</svg>
