<svg width="20" height="17" viewBox="0 0 20 17" fill="none" xmlns="http://www.w3.org/2000/svg">
    <path d="M2 2.5L8 8.5M18 2.5L12 8.5M8 8.5L8.58579 9.08579C9.36684 9.86684 10.6332 9.86684 11.4142 9.08579L12 8.5M8 8.5L1.87868 14.6213M12 8.5L18.1213 14.6213M18.1213 14.6213C18.6642 14.0784 19 13.3284 19 12.5V3.5C19 2.39543 18.1046 1.5 17 1.5H3C1.89543 1.5 1 2.39543 1 3.5V12.5C1 13.3284 1.33579 14.0784 1.87868 14.6213M18.1213 14.6213C17.5784 15.1642 16.8284 15.5 16 15.5H4C3.17157 15.5 2.42157 15.1642 1.87868 14.6213" stroke="#686B6E" stroke-width="1.5" stroke-linecap="round"/>
</svg>
