<svg width="16" height="19" viewBox="0 0 16 19" fill="none" xmlns="http://www.w3.org/2000/svg">
    <path d="M4 7.5V5.5C4 3.29086 5.79086 1.5 8 1.5C10.2091 1.5 12 3.29086 12 5.5V7.5M8 12.5C8.55228 12.5 9 12.0523 9 11.5C9 10.9477 8.55228 10.5 8 10.5C7.44772 10.5 7 10.9477 7 11.5C7 12.0523 7.44772 12.5 8 12.5ZM8 12.5V14.5M3 17.5H13C14.1046 17.5 15 16.6046 15 15.5V9.5C15 8.39543 14.1046 7.5 13 7.5H3C1.89543 7.5 1 8.39543 1 9.5V15.5C1 16.6046 1.89543 17.5 3 17.5Z" stroke="#686B6E" stroke-width="1.5" stroke-linecap="round" stroke-linejoin="round"/>
</svg>
